# xmcd CD database file
#
# Track frame offsets:
#	150
#	21305
#	44356
#	63015
#	77878
#	100265
#	118045
#	136092
#	146593
#	159791
#	180121
#	202045
#	214362
#	239985
#	254139
#	268557
#
# Disc length: 3765 seconds
#
# Revision: 0
# Processed by: cddbd v1.5.1PL0 Copyright (c) Steve Scherf et al.
# Submitted via: CDex 1.51
#
DISCID=e90eb310
DTITLE=Various Artist - Voice of Jazz CD1
DYEAR=2005
DGENRE=Jazz
TTITLE0=Diana Krall - The Look Of Love
TTITLE1=The Peter Malick Group featuring Norah Jones - New York City
TTITLE2=Natalie Cole - Tell Me All About It
TTITLE3=Silje Nergaard - Let There Be Love
TTITLE4=Laura Fygi - The Lady Wants To Know
TTITLE5=The Temptations - Night And Day
TTITLE6=Sarah Vaughan - Someone To Watch Over Me
TTITLE7=Astrud Gilberto - Agua De Beber
TTITLE8=Dee Dee Bridgewater - Just One Of Those Things
TTITLE9=Aaron Neville - The Very Thought Of You
TTITLE10=Bobby Caldwell - Jamaica
TTITLE11=Ella Fitzgerald - Misty
TTITLE12=Billie Holiday - One For My Baby (And One More For The Road)
TTITLE13=Peggy Lee - Black Coffee
TTITLE14=Blossom Dearie - Our Love Is Here To Stay
TTITLE15=Louis Armstrong - A Kiss To Build A Dream On
EXTD=YEAR: 2005
EXTT0=
EXTT1=
EXTT2=
EXTT3=
EXTT4=
EXTT5=
EXTT6=
EXTT7=
EXTT8=
EXTT9=
EXTT10=
EXTT11=
EXTT12=
EXTT13=
EXTT14=
EXTT15=
PLAYORDER=
